<svg xmlns="http://www.w3.org/2000/svg" viewBox="0 0 400 300">
  <defs>
    <linearGradient id="grad1" x1="0%" y1="0%" x2="100%" y2="100%">
      <stop offset="0%" style="stop-color:#007bff;stop-opacity:1" />
      <stop offset="100%" style="stop-color:#0056b3;stop-opacity:1" />
    </linearGradient>
  </defs>
  
  <path fill="url(#grad1)" d="M280,130 c0-44.18-35.82-80-80-80 c-36.5,0-67.5,24.5-77,58 C118,106,113,105,108,105 c-38,0-70,30-70,68 c0,35,30,65,65,65 h180 c35,0,65-28,65-63 C348,150,318,130,280,130z"/>
  
  <path fill="#ffffff" d="M180,180 L220,140 L220,160 L260,120 L220,120 L220,140 L180,180 Z" opacity="0.9"/>
  
  <text x="200" y="260" font-family="Arial, sans-serif" font-size="28" font-weight="bold" text-anchor="middle" fill="#333" letter-spacing="2">CLOUD SERVICES</text>
  <text x="200" y="290" font-family="Arial, sans-serif" font-size="24" font-weight="bold" text-anchor="middle" fill="#007bff" letter-spacing="4">LLC</text>
</svg>